<svg width="60" height="60" viewBox="0 0 60 60" fill="none" xmlns="http://www.w3.org/2000/svg">
<path d="M7.50009 7.49999C10.3125 4.68758 15.0001 2.8125 30.0001 2.8125C45.0001 2.8125 49.6876 4.6875 52.5001 7.49999C55.3126 10.3125 57.1875 15 57.1875 30C57.1875 45 55.3125 49.6876 52.5001 52.5C49.6877 55.3124 45.0001 57.1875 30.0001 57.1875C15.0001 57.1875 10.3125 55.3124 7.50009 52.5C4.68768 49.6876 2.8125 45 2.8125 30C2.8125 15 4.68768 10.3124 7.50009 7.49999Z" stroke="white" stroke-width="2.8"/>
<path d="M22.5001 10.3125C22.5001 10.3125 21.7394 10.3125 20.625 10.4235M10.3125 22.5C10.3125 22.5 10.3126 15.9376 13.1251 13.125C13.644 12.6061 14.2906 12.1829 15 11.8378" stroke="white" stroke-width="2.8" stroke-linecap="round"/>
<path d="M20.625 30C22.5 24.375 26.2501 15 30 15C33.75 15 37.5 24.375 39.375 30C41.25 35.625 43.125 45 39.375 45C35.625 45 33.7501 37.5 30 37.5C26.25 37.5 24.375 45 20.6251 45C16.8751 45 18.75 35.625 20.625 30Z" stroke="white" stroke-width="2.8" stroke-linecap="round" stroke-linejoin="round"/>
</svg>
