<svg width="60" height="60" viewBox="0 0 60 60" fill="none" xmlns="http://www.w3.org/2000/svg">
<rect x="15" y="33.75" width="7.5" height="22.5" rx="3.75" stroke="#37A238" stroke-width="2.8"/>
<rect x="43.125" y="33.75" width="7.5" height="22.5" rx="3.75" stroke="#37A238" stroke-width="2.8"/>
<path d="M7.5 15C7.5 8.7868 12.5368 3.75 18.75 3.75V3.75C24.9632 3.75 30 8.7868 30 15V15C30 21.2132 24.9632 26.25 18.75 26.25V26.25C12.5368 26.25 7.5 21.2132 7.5 15V15Z" stroke="#37A238" stroke-width="2.8"/>
<path d="M18.75 33.75V26.25" stroke="#37A238" stroke-width="2.8" stroke-linecap="round"/>
<path d="M46.875 33.75V27.6887C46.875 25.567 46.0321 23.5321 44.5319 22.0319L40.7008 18.2008C39.8519 17.3519 39.375 16.2005 39.375 15V15C39.375 13.7995 39.8519 12.6481 40.7008 11.7992L48.75 3.75" stroke="#37A238" stroke-width="2.8" stroke-linecap="round"/>
</svg>
