<svg width="60" height="60" viewBox="0 0 60 60" fill="none" xmlns="http://www.w3.org/2000/svg">
<path fill-rule="evenodd" clip-rule="evenodd" d="M24.5878 3.26473C26.834 2.7464 28.8727 2.34998 30.0002 2.34998C31.1277 2.34998 33.1665 2.7464 35.4126 3.26474C37.7238 3.7981 40.4393 4.50671 43.0246 5.21181C45.6124 5.91756 48.0811 6.62291 49.9021 7.15158C50.8128 7.416 51.5622 7.63639 52.0841 7.79077C52.3451 7.86796 52.5493 7.92866 52.6884 7.97012L52.8472 8.01753L52.8881 8.02977L52.8986 8.03291L52.9013 8.03372L52.902 8.03393C52.9022 8.03399 52.9023 8.03402 52.5 9.37498L52.9023 8.03402L53.783 8.29823L53.8904 9.2114C55.8191 25.6051 50.0197 36.7749 43.6988 43.8252C40.551 47.3361 37.2847 49.8159 34.8031 51.4199C33.5611 52.2226 32.5121 52.8084 31.7673 53.1961C31.3948 53.39 31.0981 53.5346 30.8909 53.6323C30.7874 53.6811 30.7062 53.7182 30.6491 53.7438L30.6105 53.761L30.5817 53.7737L30.5619 53.7824L30.5556 53.7851L30.5534 53.7861C30.5525 53.7864 30.5517 53.7868 30.0002 52.5C29.4487 53.7868 29.448 53.7864 29.4471 53.7861L29.4448 53.7851L29.4385 53.7824L29.4188 53.7738C29.4123 53.7709 29.405 53.7677 29.3966 53.764C29.3838 53.7583 29.3687 53.7516 29.3514 53.7438C29.2943 53.7182 29.2131 53.6811 29.1095 53.6323C28.9024 53.5346 28.6056 53.39 28.2331 53.1961C27.4884 52.8084 26.4393 52.2227 25.1973 51.4199C22.7156 49.8159 19.4493 47.3361 16.3015 43.8252C9.98057 36.7749 4.18105 25.6051 6.10973 9.2114L6.21716 8.29822L7.09786 8.03402L7.50014 9.37498C7.09786 8.03402 7.09797 8.03399 7.09814 8.03393L7.09886 8.03372L7.10157 8.03291L7.11205 8.02976L7.15295 8.01753L7.31179 7.97011C7.4509 7.92866 7.65507 7.86796 7.91606 7.79077C8.43802 7.63639 9.18737 7.41599 10.0981 7.15158C11.9191 6.62291 14.3879 5.91756 16.9756 5.21181C19.561 4.50671 22.2766 3.7981 24.5878 3.26473ZM30.0002 52.5L30.5517 53.7868L30.0002 54.0231L29.4487 53.7868L30.0002 52.5ZM42.3036 19.6719C42.8127 19.09 42.7538 18.2055 42.1719 17.6964C41.59 17.1872 40.7055 17.2462 40.1964 17.8281L28.0568 31.7019L21.6149 25.26C21.0682 24.7133 20.1818 24.7133 19.635 25.26C19.0883 25.8068 19.0883 26.6932 19.635 27.2399L27.135 34.7399L28.1932 35.7981L29.1786 34.6719L42.3036 19.6719Z" fill="#37A238"/>
</svg>
