<svg width="60" height="60" viewBox="0 0 60 60" fill="none" xmlns="http://www.w3.org/2000/svg">
<path d="M41.2501 37.5C41.2501 37.5 22.5001 30 26.2501 7.5C26.2501 7.5 37.5 3.75 41.2501 3.75C45.0002 3.75 56.2501 7.5 56.2501 7.5C60.0001 30 41.2501 37.5 41.2501 37.5Z" stroke="#37A238" stroke-width="2.8" stroke-linecap="round"/>
<path d="M36.5625 18.75L40.3125 22.5L46.875 15" stroke="#37A238" stroke-width="2.8" stroke-linecap="round"/>
<path d="M18.75 15C15.0001 15 10.3125 24.375 7.50001 33.75C4.68752 43.125 3.75014 52.5 7.50006 52.5C11.25 52.5 15 43.125 18.75 43.125C22.5001 43.125 26.25 52.5 30 52.5C32.7244 52.5 32.9747 47.5517 31.8293 41.25" stroke="#1B8CD1" stroke-width="2.8" stroke-linecap="round" stroke-linejoin="round"/>
</svg>
