<svg width="61" height="60" viewBox="0 0 61 60" fill="none" xmlns="http://www.w3.org/2000/svg">
<path d="M14.7292 47.8125H27.8542C30.6667 47.8125 30.6667 50.625 30.6667 50.625V51.5625C30.6667 51.5625 30.6667 54.375 27.8542 54.375H14.7292C11.9167 54.375 11.9167 51.5625 11.9167 51.5625V50.625C11.9167 50.625 11.9167 47.8125 14.7292 47.8125Z" fill="#37A238"/>
<path d="M45.1979 7.5C47.5416 7.5 47.5416 9.84375 47.5416 9.84375L47.5417 16.4062C47.5417 16.4062 47.5417 18.75 45.1979 18.75C42.8542 18.75 42.8543 16.4062 42.8543 16.4062L42.8542 9.84375C42.8542 9.84375 42.8543 7.5 45.1979 7.5Z" fill="#37A238"/>
<path d="M13.7917 41.25L10.2087 10.7949C10.1032 9.89817 10.4142 9.00251 11.0526 8.36407V8.36407C11.6059 7.81081 12.3563 7.5 13.1387 7.5H29.4447C30.2271 7.5 30.9775 7.81082 31.5308 8.36408V8.36408C32.1692 9.00252 32.4801 9.89816 32.3746 10.7949L28.7917 41.25" stroke="#37A238" stroke-width="2.8" stroke-linecap="round"/>
<path d="M47.5417 52.5V27.9068C47.5417 26.846 47.9631 25.8286 48.7132 25.0784L50.1201 23.6716C50.8702 22.9214 51.2917 21.904 51.2917 20.8431V7.5" stroke="#37A238" stroke-width="2.8" stroke-linecap="round"/>
</svg>
