<svg width="32" height="32" viewBox="0 0 32 32" fill="none" xmlns="http://www.w3.org/2000/svg">
<g clip-path="url(#clip0_28_294)">
<path fill-rule="evenodd" clip-rule="evenodd" d="M16 32C24.8366 32 32 24.8366 32 16C32 12.7994 31.0602 9.81833 29.4416 7.3176L15.9031 22.7902L15.0585 23.7555L14.1515 22.8485L6.15147 14.8485C5.68284 14.3799 5.68284 13.6201 6.15147 13.1515C6.6201 12.6828 7.3799 12.6828 7.84853 13.1515L14.9415 20.2445L27.9577 5.36893C25.027 2.07494 20.7558 0 16 0C7.16344 0 0 7.16344 0 16C0 24.8366 7.16344 32 16 32Z" fill="#1B8CD1"/>
</g>
<defs>
<clipPath id="clip0_28_294">
<rect width="32" height="32" fill="white"/>
</clipPath>
</defs>
</svg>
