<svg width="61" height="60" viewBox="0 0 61 60" fill="none" xmlns="http://www.w3.org/2000/svg">
<path d="M22.8334 52.5H30.3334H43.4584M52.8334 52.5H50.9584" stroke="#37A238" stroke-width="2.8" stroke-linecap="round"/>
<path d="M42.7479 8.29918L13.7065 40.9708C13.5415 41.1565 13.394 41.3572 13.2662 41.5702L8.51551 49.4881C8.11461 50.1562 8.2199 51.0115 8.77087 51.5625C9.32185 52.1134 10.1771 52.2187 10.8453 51.8178L18.5584 47.1899C18.9064 46.9812 19.2205 46.7207 19.4901 46.4174L48.5379 13.7386C48.8978 13.3337 49.1808 12.8606 49.2573 12.3243C49.3959 11.3518 49.395 9.68659 48.1459 8.4375C46.9968 7.28849 45.4956 7.19568 44.5055 7.29604C43.8085 7.36669 43.2134 7.77555 42.7479 8.29918Z" stroke="#37A238" stroke-width="2.8" stroke-linecap="round" stroke-linejoin="round"/>
<path d="M49.0834 15L50.1664 16.0831C51.664 17.5806 51.7347 19.986 50.3276 21.5689L37.8334 35.625" stroke="#37A238" stroke-width="2.8" stroke-linecap="round"/>
</svg>
